<?xml version="1.0" encoding="UTF-8" standalone="no"?>
<!DOCTYPE svg PUBLIC "-//W3C//DTD SVG 1.1//EN"
 "http://www.w3.org/Graphics/SVG/1.1/DTD/svg11.dtd">
<!-- Generated by graphviz version 2.43.0 (0)
 -->
<!-- Title: Example &#45; Simple Web Service with DB Cluster Pages: 1 -->
<svg width="654pt" height="469pt"
 viewBox="0.00 0.00 654.00 469.00" xmlns="http://www.w3.org/2000/svg" xmlns:xlink="http://www.w3.org/1999/xlink">
<g id="graph0" class="graph" transform="scale(1 1) rotate(0) translate(36 433)">
<title>Example &#45; Simple Web Service with DB Cluster</title>
<polygon fill="white" stroke="transparent" points="-36,36 -36,-433 618,-433 618,36 -36,36"/>
<text text-anchor="middle" x="291" y="-9.2" font-family="Sans-Serif" font-size="16.00" fill="#2d3436">Example &#45; Simple Web Service with DB Cluster</text>
<g id="clust1" class="cluster">
<title>cluster_DB Cluster</title>
<path fill="#e5f5fd" stroke="#aeb6be" d="M314,-34C314,-34 562,-34 562,-34 568,-34 574,-40 574,-46 574,-46 574,-377 574,-377 574,-383 568,-389 562,-389 562,-389 314,-389 314,-389 308,-389 302,-383 302,-377 302,-377 302,-46 302,-46 302,-40 308,-34 314,-34"/>
<text text-anchor="middle" x="342" y="-375.4" font-family="Sans-Serif" font-size="12.00" fill="#2d3436">DB Cluster</text>
</g>
<!-- 976f9b4f91da4d80a955923c86445431 -->
<g id="node1" class="node">
<title>976f9b4f91da4d80a955923c86445431</title>
<image xlink:href="/usr/local/lib/python3.12/site-packages/resources/aws/network/route-53.png" width="101px" height="101px" preserveAspectRatio="xMinYMin meet" x="0" y="-251.5"/>
<text text-anchor="middle" x="50.5" y="-136.1" font-family="Sans-Serif" font-size="13.00" fill="#2d3436">dns</text>
</g>
<!-- f4cdc1aec22040c3903559b41e8191f7 -->
<g id="node2" class="node">
<title>f4cdc1aec22040c3903559b41e8191f7</title>
<image xlink:href="/usr/local/lib/python3.12/site-packages/resources/aws/compute/elastic-container-service.png" width="101px" height="101px" preserveAspectRatio="xMinYMin meet" x="155" y="-251.5"/>
<text text-anchor="middle" x="205.5" y="-136.1" font-family="Sans-Serif" font-size="13.00" fill="#2d3436">service</text>
</g>
<!-- 976f9b4f91da4d80a955923c86445431&#45;&gt;f4cdc1aec22040c3903559b41e8191f7 -->
<g id="edge3" class="edge">
<title>976f9b4f91da4d80a955923c86445431&#45;&gt;f4cdc1aec22040c3903559b41e8191f7</title>
<path fill="none" stroke="#7b8894" d="M101.25,-201C101.25,-201 144.9,-201 144.9,-201"/>
<polygon fill="#7b8894" stroke="#7b8894" points="144.9,-204.5 154.9,-201 144.9,-197.5 144.9,-204.5"/>
</g>
<!-- bca9329d520240aaabfde8f292fa49ac -->
<g id="node3" class="node">
<title>bca9329d520240aaabfde8f292fa49ac</title>
<image xlink:href="/usr/local/lib/python3.12/site-packages/resources/aws/database/rds.png" width="101px" height="101px" preserveAspectRatio="xMinYMin meet" x="310" y="-251.5"/>
<text text-anchor="middle" x="360.5" y="-136.1" font-family="Sans-Serif" font-size="13.00" fill="#2d3436">primary</text>
</g>
<!-- f4cdc1aec22040c3903559b41e8191f7&#45;&gt;bca9329d520240aaabfde8f292fa49ac -->
<g id="edge4" class="edge">
<title>f4cdc1aec22040c3903559b41e8191f7&#45;&gt;bca9329d520240aaabfde8f292fa49ac</title>
<path fill="none" stroke="#7b8894" d="M256.25,-201C256.25,-201 299.9,-201 299.9,-201"/>
<polygon fill="#7b8894" stroke="#7b8894" points="299.9,-204.5 309.9,-201 299.9,-197.5 299.9,-204.5"/>
</g>
<!-- 32e293eb63fc4097ad41f346fb10dfe0 -->
<g id="node4" class="node">
<title>32e293eb63fc4097ad41f346fb10dfe0</title>
<image xlink:href="/usr/local/lib/python3.12/site-packages/resources/aws/database/rds.png" width="101px" height="101px" preserveAspectRatio="xMinYMin meet" x="465" y="-161.5"/>
<text text-anchor="middle" x="515.5" y="-46.1" font-family="Sans-Serif" font-size="13.00" fill="#2d3436">replica1</text>
</g>
<!-- bca9329d520240aaabfde8f292fa49ac&#45;&gt;32e293eb63fc4097ad41f346fb10dfe0 -->
<g id="edge1" class="edge">
<title>bca9329d520240aaabfde8f292fa49ac&#45;&gt;32e293eb63fc4097ad41f346fb10dfe0</title>
<path fill="none" stroke="#7b8894" d="M411.25,-156C428.47,-156 447.69,-156 464.9,-156"/>
</g>
<!-- 6e3a69f3f4a2493c98c3ba198cbd20fc -->
<g id="node5" class="node">
<title>6e3a69f3f4a2493c98c3ba198cbd20fc</title>
<image xlink:href="/usr/local/lib/python3.12/site-packages/resources/aws/database/rds.png" width="101px" height="101px" preserveAspectRatio="xMinYMin meet" x="465" y="-341.5"/>
<text text-anchor="middle" x="515.5" y="-226.1" font-family="Sans-Serif" font-size="13.00" fill="#2d3436">replica2</text>
</g>
<!-- bca9329d520240aaabfde8f292fa49ac&#45;&gt;6e3a69f3f4a2493c98c3ba198cbd20fc -->
<g id="edge2" class="edge">
<title>bca9329d520240aaabfde8f292fa49ac&#45;&gt;6e3a69f3f4a2493c98c3ba198cbd20fc</title>
<path fill="none" stroke="#7b8894" d="M411.25,-246C428.47,-246 447.69,-246 464.9,-246"/>
</g>
</g>
</svg>
