<?xml version="1.0" encoding="UTF-8" standalone="no"?>
<!DOCTYPE svg PUBLIC "-//W3C//DTD SVG 1.1//EN"
 "http://www.w3.org/Graphics/SVG/1.1/DTD/svg11.dtd">
<!-- Generated by graphviz version 2.43.0 (0)
 -->
<!-- Title: Event Processing Pages: 1 -->
<svg width="793pt" height="686pt"
 viewBox="0.00 0.00 793.00 686.00" xmlns="http://www.w3.org/2000/svg" xmlns:xlink="http://www.w3.org/1999/xlink">
<g id="graph0" class="graph" transform="scale(1 1) rotate(0) translate(36 650)">
<title>Event Processing</title>
<polygon fill="white" stroke="transparent" points="-36,36 -36,-650 757,-650 757,36 -36,36"/>
<text text-anchor="middle" x="360.5" y="-9.2" font-family="Sans-Serif" font-size="16.00" fill="#2d3436">Event Processing</text>
<g id="clust1" class="cluster">
<title>cluster_Event Flows</title>
<path fill="#e5f5fd" stroke="#aeb6be" d="M151,-34C151,-34 570,-34 570,-34 576,-34 582,-40 582,-46 582,-46 582,-594 582,-594 582,-600 576,-606 570,-606 570,-606 151,-606 151,-606 145,-606 139,-600 139,-594 139,-594 139,-46 139,-46 139,-40 145,-34 151,-34"/>
<text text-anchor="middle" x="182.5" y="-592.4" font-family="Sans-Serif" font-size="12.00" fill="#2d3436">Event Flows</text>
</g>
<g id="clust2" class="cluster">
<title>cluster_Event Workers</title>
<path fill="#ebf3e7" stroke="#aeb6be" d="M159,-42C159,-42 252,-42 252,-42 258,-42 264,-48 264,-54 264,-54 264,-565 264,-565 264,-571 258,-577 252,-577 252,-577 159,-577 159,-577 153,-577 147,-571 147,-565 147,-565 147,-54 147,-54 147,-48 153,-42 159,-42"/>
<text text-anchor="middle" x="199" y="-563.4" font-family="Sans-Serif" font-size="12.00" fill="#2d3436">Event Workers</text>
</g>
<g id="clust3" class="cluster">
<title>cluster_Processing</title>
<path fill="#ebf3e7" stroke="#aeb6be" d="M469,-42C469,-42 562,-42 562,-42 568,-42 574,-48 574,-54 574,-54 574,-565 574,-565 574,-571 568,-577 562,-577 562,-577 469,-577 469,-577 463,-577 457,-571 457,-565 457,-565 457,-54 457,-54 457,-48 463,-42 469,-42"/>
<text text-anchor="middle" x="497" y="-563.4" font-family="Sans-Serif" font-size="12.00" fill="#2d3436">Processing</text>
</g>
<!-- 1d33715a0d1249599e02b6bb4cf147a6 -->
<g id="node1" class="node">
<title>1d33715a0d1249599e02b6bb4cf147a6</title>
<image xlink:href="/usr/local/lib/python3.12/site-packages/resources/aws/compute/elastic-kubernetes-service.png" width="101px" height="101px" preserveAspectRatio="xMinYMin meet" x="0" y="-349.5"/>
<text text-anchor="middle" x="50.5" y="-234.1" font-family="Sans-Serif" font-size="13.00" fill="#2d3436">k8s source</text>
</g>
<!-- 431b4b6b3cc74155b8601d9d2ff0adbf -->
<g id="node2" class="node">
<title>431b4b6b3cc74155b8601d9d2ff0adbf</title>
<image xlink:href="/usr/local/lib/python3.12/site-packages/resources/aws/compute/elastic-container-service.png" width="101px" height="101px" preserveAspectRatio="xMinYMin meet" x="155" y="-529.5"/>
<text text-anchor="middle" x="205.5" y="-414.1" font-family="Sans-Serif" font-size="13.00" fill="#2d3436">worker1</text>
</g>
<!-- 1d33715a0d1249599e02b6bb4cf147a6&#45;&gt;431b4b6b3cc74155b8601d9d2ff0adbf -->
<g id="edge1" class="edge">
<title>1d33715a0d1249599e02b6bb4cf147a6&#45;&gt;431b4b6b3cc74155b8601d9d2ff0adbf</title>
<path fill="none" stroke="#7b8894" d="M51,-367.56C51,-418.43 51,-479 51,-479 51,-479 144.91,-479 144.91,-479"/>
<polygon fill="#7b8894" stroke="#7b8894" points="144.91,-482.5 154.91,-479 144.91,-475.5 144.91,-482.5"/>
</g>
<!-- 2b2795357e41400a994989d314e8c87e -->
<g id="node3" class="node">
<title>2b2795357e41400a994989d314e8c87e</title>
<image xlink:href="/usr/local/lib/python3.12/site-packages/resources/aws/compute/elastic-container-service.png" width="101px" height="101px" preserveAspectRatio="xMinYMin meet" x="155" y="-349.5"/>
<text text-anchor="middle" x="205.5" y="-234.1" font-family="Sans-Serif" font-size="13.00" fill="#2d3436">worker2</text>
</g>
<!-- 1d33715a0d1249599e02b6bb4cf147a6&#45;&gt;2b2795357e41400a994989d314e8c87e -->
<g id="edge2" class="edge">
<title>1d33715a0d1249599e02b6bb4cf147a6&#45;&gt;2b2795357e41400a994989d314e8c87e</title>
<path fill="none" stroke="#7b8894" d="M101.25,-299C101.25,-299 144.9,-299 144.9,-299"/>
<polygon fill="#7b8894" stroke="#7b8894" points="144.9,-302.5 154.9,-299 144.9,-295.5 144.9,-302.5"/>
</g>
<!-- d50e466b5d16428096d98e6845631c23 -->
<g id="node4" class="node">
<title>d50e466b5d16428096d98e6845631c23</title>
<image xlink:href="/usr/local/lib/python3.12/site-packages/resources/aws/compute/elastic-container-service.png" width="101px" height="101px" preserveAspectRatio="xMinYMin meet" x="155" y="-169.5"/>
<text text-anchor="middle" x="205.5" y="-54.1" font-family="Sans-Serif" font-size="13.00" fill="#2d3436">worker3</text>
</g>
<!-- 1d33715a0d1249599e02b6bb4cf147a6&#45;&gt;d50e466b5d16428096d98e6845631c23 -->
<g id="edge3" class="edge">
<title>1d33715a0d1249599e02b6bb4cf147a6&#45;&gt;d50e466b5d16428096d98e6845631c23</title>
<path fill="none" stroke="#7b8894" d="M51,-230.44C51,-179.57 51,-119 51,-119 51,-119 144.91,-119 144.91,-119"/>
<polygon fill="#7b8894" stroke="#7b8894" points="144.91,-122.5 154.91,-119 144.91,-115.5 144.91,-122.5"/>
</g>
<!-- c766b84be8e04727853c5c8aa0fb0cce -->
<g id="node5" class="node">
<title>c766b84be8e04727853c5c8aa0fb0cce</title>
<image xlink:href="/usr/local/lib/python3.12/site-packages/resources/aws/integration/simple-queue-service-sqs.png" width="101px" height="101px" preserveAspectRatio="xMinYMin meet" x="310" y="-349.5"/>
<text text-anchor="middle" x="360.5" y="-234.1" font-family="Sans-Serif" font-size="13.00" fill="#2d3436">event queue</text>
</g>
<!-- 431b4b6b3cc74155b8601d9d2ff0adbf&#45;&gt;c766b84be8e04727853c5c8aa0fb0cce -->
<g id="edge4" class="edge">
<title>431b4b6b3cc74155b8601d9d2ff0adbf&#45;&gt;c766b84be8e04727853c5c8aa0fb0cce</title>
<path fill="none" stroke="#7b8894" d="M256.29,-501.83C295.81,-501.83 344,-501.83 344,-501.83 344,-501.83 344,-377.67 344,-377.67"/>
<polygon fill="#7b8894" stroke="#7b8894" points="347.5,-377.67 344,-367.67 340.5,-377.67 347.5,-377.67"/>
</g>
<!-- 2b2795357e41400a994989d314e8c87e&#45;&gt;c766b84be8e04727853c5c8aa0fb0cce -->
<g id="edge5" class="edge">
<title>2b2795357e41400a994989d314e8c87e&#45;&gt;c766b84be8e04727853c5c8aa0fb0cce</title>
<path fill="none" stroke="#7b8894" d="M256.25,-299C256.25,-299 299.9,-299 299.9,-299"/>
<polygon fill="#7b8894" stroke="#7b8894" points="299.9,-302.5 309.9,-299 299.9,-295.5 299.9,-302.5"/>
</g>
<!-- d50e466b5d16428096d98e6845631c23&#45;&gt;c766b84be8e04727853c5c8aa0fb0cce -->
<g id="edge6" class="edge">
<title>d50e466b5d16428096d98e6845631c23&#45;&gt;c766b84be8e04727853c5c8aa0fb0cce</title>
<path fill="none" stroke="#7b8894" d="M256.29,-141.83C295.81,-141.83 344,-141.83 344,-141.83 344,-141.83 344,-220.06 344,-220.06"/>
<polygon fill="#7b8894" stroke="#7b8894" points="340.5,-220.06 344,-230.06 347.5,-220.06 340.5,-220.06"/>
</g>
<!-- 216ade655b4548bc873c031c6695dbb7 -->
<g id="node6" class="node">
<title>216ade655b4548bc873c031c6695dbb7</title>
<image xlink:href="/usr/local/lib/python3.12/site-packages/resources/aws/compute/lambda.png" width="101px" height="101px" preserveAspectRatio="xMinYMin meet" x="465" y="-349.5"/>
<text text-anchor="middle" x="515.5" y="-234.1" font-family="Sans-Serif" font-size="13.00" fill="#2d3436">proc1</text>
</g>
<!-- c766b84be8e04727853c5c8aa0fb0cce&#45;&gt;216ade655b4548bc873c031c6695dbb7 -->
<g id="edge7" class="edge">
<title>c766b84be8e04727853c5c8aa0fb0cce&#45;&gt;216ade655b4548bc873c031c6695dbb7</title>
<path fill="none" stroke="#7b8894" d="M411.25,-299C411.25,-299 454.9,-299 454.9,-299"/>
<polygon fill="#7b8894" stroke="#7b8894" points="454.9,-302.5 464.9,-299 454.9,-295.5 454.9,-302.5"/>
</g>
<!-- 7898575fc93040d0ae5c1ebe0d39edbb -->
<g id="node7" class="node">
<title>7898575fc93040d0ae5c1ebe0d39edbb</title>
<image xlink:href="/usr/local/lib/python3.12/site-packages/resources/aws/compute/lambda.png" width="101px" height="101px" preserveAspectRatio="xMinYMin meet" x="465" y="-169.5"/>
<text text-anchor="middle" x="515.5" y="-54.1" font-family="Sans-Serif" font-size="13.00" fill="#2d3436">proc2</text>
</g>
<!-- c766b84be8e04727853c5c8aa0fb0cce&#45;&gt;7898575fc93040d0ae5c1ebe0d39edbb -->
<g id="edge8" class="edge">
<title>c766b84be8e04727853c5c8aa0fb0cce&#45;&gt;7898575fc93040d0ae5c1ebe0d39edbb</title>
<path fill="none" stroke="#7b8894" d="M378,-230.33C378,-171.49 378,-96.17 378,-96.17 378,-96.17 454.69,-96.17 454.69,-96.17"/>
<polygon fill="#7b8894" stroke="#7b8894" points="454.69,-99.67 464.69,-96.17 454.69,-92.67 454.69,-99.67"/>
</g>
<!-- dcf956d599784a5abbb823621e52a6c4 -->
<g id="node8" class="node">
<title>dcf956d599784a5abbb823621e52a6c4</title>
<image xlink:href="/usr/local/lib/python3.12/site-packages/resources/aws/compute/lambda.png" width="101px" height="101px" preserveAspectRatio="xMinYMin meet" x="465" y="-529.5"/>
<text text-anchor="middle" x="515.5" y="-414.1" font-family="Sans-Serif" font-size="13.00" fill="#2d3436">proc3</text>
</g>
<!-- c766b84be8e04727853c5c8aa0fb0cce&#45;&gt;dcf956d599784a5abbb823621e52a6c4 -->
<g id="edge9" class="edge">
<title>c766b84be8e04727853c5c8aa0fb0cce&#45;&gt;dcf956d599784a5abbb823621e52a6c4</title>
<path fill="none" stroke="#7b8894" d="M378,-367.94C378,-410.16 378,-456.17 378,-456.17 378,-456.17 454.69,-456.17 454.69,-456.17"/>
<polygon fill="#7b8894" stroke="#7b8894" points="454.69,-459.67 464.69,-456.17 454.69,-452.67 454.69,-459.67"/>
</g>
<!-- 0b35dbd2769249e6aae8f7fce98a2587 -->
<g id="node9" class="node">
<title>0b35dbd2769249e6aae8f7fce98a2587</title>
<image xlink:href="/usr/local/lib/python3.12/site-packages/resources/aws/storage/simple-storage-service-s3.png" width="101px" height="101px" preserveAspectRatio="xMinYMin meet" x="620" y="-439.5"/>
<text text-anchor="middle" x="670.5" y="-324.1" font-family="Sans-Serif" font-size="13.00" fill="#2d3436">events store</text>
</g>
<!-- 216ade655b4548bc873c031c6695dbb7&#45;&gt;0b35dbd2769249e6aae8f7fce98a2587 -->
<g id="edge10" class="edge">
<title>216ade655b4548bc873c031c6695dbb7&#45;&gt;0b35dbd2769249e6aae8f7fce98a2587</title>
<path fill="none" stroke="#7b8894" d="M566.25,-351.83C566.25,-351.83 609.9,-351.83 609.9,-351.83"/>
<polygon fill="#7b8894" stroke="#7b8894" points="609.9,-355.33 619.9,-351.83 609.9,-348.33 609.9,-355.33"/>
</g>
<!-- f1b351006d2b40bea8bff26d9ee43cc3 -->
<g id="node10" class="node">
<title>f1b351006d2b40bea8bff26d9ee43cc3</title>
<image xlink:href="/usr/local/lib/python3.12/site-packages/resources/aws/database/redshift.png" width="101px" height="101px" preserveAspectRatio="xMinYMin meet" x="620" y="-259.5"/>
<text text-anchor="middle" x="670.5" y="-144.1" font-family="Sans-Serif" font-size="13.00" fill="#2d3436">analytics</text>
</g>
<!-- 216ade655b4548bc873c031c6695dbb7&#45;&gt;f1b351006d2b40bea8bff26d9ee43cc3 -->
<g id="edge13" class="edge">
<title>216ade655b4548bc873c031c6695dbb7&#45;&gt;f1b351006d2b40bea8bff26d9ee43cc3</title>
<path fill="none" stroke="#7b8894" d="M566.25,-246.17C566.25,-246.17 609.9,-246.17 609.9,-246.17"/>
<polygon fill="#7b8894" stroke="#7b8894" points="609.9,-249.67 619.9,-246.17 609.9,-242.67 609.9,-249.67"/>
</g>
<!-- 7898575fc93040d0ae5c1ebe0d39edbb&#45;&gt;0b35dbd2769249e6aae8f7fce98a2587 -->
<g id="edge11" class="edge">
<title>7898575fc93040d0ae5c1ebe0d39edbb&#45;&gt;0b35dbd2769249e6aae8f7fce98a2587</title>
<path fill="none" stroke="#7b8894" d="M566.07,-171.83C585,-171.83 602,-171.83 602,-171.83 602,-171.83 602,-336.17 602,-336.17 602,-336.17 610,-336.17 610,-336.17"/>
<polygon fill="#7b8894" stroke="#7b8894" points="610,-339.67 620,-336.17 610,-332.67 610,-339.67"/>
</g>
<!-- 7898575fc93040d0ae5c1ebe0d39edbb&#45;&gt;f1b351006d2b40bea8bff26d9ee43cc3 -->
<g id="edge14" class="edge">
<title>7898575fc93040d0ae5c1ebe0d39edbb&#45;&gt;f1b351006d2b40bea8bff26d9ee43cc3</title>
<path fill="none" stroke="#7b8894" d="M566.25,-156.17C566.25,-156.17 609.9,-156.17 609.9,-156.17"/>
<polygon fill="#7b8894" stroke="#7b8894" points="609.9,-159.67 619.9,-156.17 609.9,-152.67 609.9,-159.67"/>
</g>
<!-- dcf956d599784a5abbb823621e52a6c4&#45;&gt;0b35dbd2769249e6aae8f7fce98a2587 -->
<g id="edge12" class="edge">
<title>dcf956d599784a5abbb823621e52a6c4&#45;&gt;0b35dbd2769249e6aae8f7fce98a2587</title>
<path fill="none" stroke="#7b8894" d="M566.25,-441.83C566.25,-441.83 609.9,-441.83 609.9,-441.83"/>
<polygon fill="#7b8894" stroke="#7b8894" points="609.9,-445.33 619.9,-441.83 609.9,-438.33 609.9,-445.33"/>
</g>
<!-- dcf956d599784a5abbb823621e52a6c4&#45;&gt;f1b351006d2b40bea8bff26d9ee43cc3 -->
<g id="edge15" class="edge">
<title>dcf956d599784a5abbb823621e52a6c4&#45;&gt;f1b351006d2b40bea8bff26d9ee43cc3</title>
<path fill="none" stroke="#7b8894" d="M566,-426.17C576.27,-426.17 584,-426.17 584,-426.17 584,-426.17 584,-261.83 584,-261.83 584,-261.83 609.93,-261.83 609.93,-261.83"/>
<polygon fill="#7b8894" stroke="#7b8894" points="609.93,-265.33 619.93,-261.83 609.93,-258.33 609.93,-265.33"/>
</g>
</g>
</svg>
